# xmcd
#
# Track frame offsets: 
#        150
#        10538
#        21450
#        32855
#        44149
#        55193
#        66314
#        76724
#        89489
#        98998
#        108802
#        119565
#        129724
#        140945
#        152359
#        164316
#        174748
#        187425
#        200509
#        211565
#        223655
#        234889
#        245834
#        256949
#
# Disc length: 3553 seconds
#
# Revision: 0
# Processed by: cddbd v1.5.2PL0 Copyright (c) Steve Scherf et al.
# Submitted via: ExactAudioCopyFreeDBPlugin 1.0
#
DISCID=5f0ddf18
DTITLE=Connie Smith - The Hurtin's All Over
DYEAR=2011
DGENRE=Country
TTITLE0=Once A Day
TTITLE1=Then And Only Then
TTITLE2=Tiny Blue Transistor Radio
TTITLE3=I Can't Remember
TTITLE4=If I Talk To Him
TTITLE5=Nobody But A Fool
TTITLE6=Ain't Had No Lovin'
TTITLE7=The Hurtin's All Over
TTITLE8=I'll Come Running
TTITLE9=Cincinnati, Ohio
TTITLE10=Burning A Hole In My Mind
TTITLE11=Bab's Back Again
TTITLE12=Run Away Little Tears
TTITLE13=Cry, Cry, Cry
TTITLE14=Ribbon Of Darkness
TTITLE15=Young Love
TTITLE16=You And Your Sweet Love
TTITLE17=I Never Once Stopped Loving You
TTITLE18=Louisiana Man
TTITLE19=Where Is My Castle
TTITLE20=Just One Time
TTITLE21=Just For What I Am
TTITLE22=If It Ain't Love
TTITLE23=Love Is The Look You're Looking For
EXTD=
EXTT0=
EXTT1=
EXTT2=
EXTT3=
EXTT4=
EXTT5=
EXTT6=
EXTT7=
EXTT8=
EXTT9=
EXTT10=
EXTT11=
EXTT12=
EXTT13=
EXTT14=
EXTT15=
EXTT16=
EXTT17=
EXTT18=
EXTT19=
EXTT20=
EXTT21=
EXTT22=
EXTT23=
PLAYORDER=
